<?xml version="1.0" encoding="utf-8"?>
<!-- Generator: Adobe Illustrator 24.0.0, SVG Export Plug-In . SVG Version: 6.00 Build 0)  -->
<svg version="1.1" id="Layer_2" xmlns="http://www.w3.org/2000/svg" xmlns:xlink="http://www.w3.org/1999/xlink" x="0px" y="0px"
	 viewBox="0 0 1080 1080" style="enable-background:new 0 0 1080 1080;" xml:space="preserve">
<style type="text/css">
	.st0{fill:#EFEFEF;}
	.st1{fill:#E08F00;}
</style>
<circle class="st0" cx="540" cy="540" r="495.1"/>
<g>
	<polygon class="st1" points="749.81,316.24 330.19,316.24 357.89,344.67 722.11,344.67 	"/>
	<polygon class="st1" points="619.86,459.45 619.86,670.06 673.32,723.52 707.53,689.32 707.53,588.02 735.96,612.94 735.96,701.09 
		707.53,729.53 673.32,763.73 653.21,743.63 591.4,681.82 591.47,681.75 591.43,681.75 591.43,431.35 722.11,431.35 749.81,459.45 	
		"/>
	
		<rect x="663.23" y="739.47" transform="matrix(0.706 -0.7082 0.7082 0.706 -338.7772 691.2697)" class="st1" width="0.04" height="28.44"/>
	
		<rect x="669.17" y="753.67" transform="matrix(0.7071 -0.7071 0.7071 0.7071 -332.7828 703.9789)" class="st1" width="28.44" height="0.04"/>
	<polygon class="st1" points="488.57,681.75 488.5,681.75 488.57,681.82 406.62,763.76 406.29,763.43 406.19,763.51 344.04,701.36 
		344.04,612.94 372.47,588.02 372.47,689.59 406.53,723.64 460.14,670.03 460.14,459.45 330.19,459.45 357.89,431.35 488.57,431.35 
			"/>
</g>
</svg>
