<svg id="Layer_2" data-name="Layer 2" xmlns="http://www.w3.org/2000/svg" viewBox="0 0 573.73 611.88"><defs><style>.cls-1{fill:#848484;}</style></defs><title>Logo Icon</title><polygon class="cls-1" points="573.73 0 0 0 37.87 38.88 535.86 38.88 573.73 0"/><polygon class="cls-1" points="396.06 195.81 396.06 483.76 469.14 556.85 515.92 510.1 515.92 371.59 554.79 405.67 554.79 526.2 515.92 565.07 469.14 611.84 441.65 584.35 357.14 499.84 357.24 499.74 357.18 499.74 357.18 157.39 535.86 157.39 573.73 195.81 396.06 195.81"/><rect class="cls-1" x="708.49" y="812.73" width="0.05" height="38.88" transform="translate(-634.18 512.34) rotate(-45.09)"/><rect class="cls-1" x="716.6" y="832.15" width="38.88" height="0.05" transform="translate(-625.99 530.14) rotate(-45)"/><polygon class="cls-1" points="216.55 499.74 216.45 499.74 216.55 499.84 104.51 611.88 104.05 611.43 103.92 611.54 18.94 526.56 18.94 405.67 57.81 371.59 57.81 510.46 104.37 557.02 177.67 483.73 177.67 195.81 0 195.81 37.87 157.39 216.55 157.39 216.55 499.74"/></svg>